<svg width="92" height="92" viewBox="0 0 92 92" fill="none" xmlns="http://www.w3.org/2000/svg">
<path d="M82.688 18H9.31204C6.93057 18 5 19.9329 5 22.3174V46.3122C5 48.6966 6.93057 50.6295 9.31204 50.6295H82.688C85.0694 50.6295 87 48.6966 87 46.3122V22.3174C87 19.9329 85.0694 18 82.688 18Z" fill="#008B81"/>
<path d="M46 72.9999L55.8764 43.0349H36.1236L46 72.9999Z" fill="#008B81"/>
<path d="M26.4179 26.6917L18.1354 41.0401H34.7005L26.4179 26.6917Z" fill="white"/>
<path d="M65.5679 41.0401L73.8504 26.6917H57.2995L65.5679 41.0401Z" fill="white"/>
<path d="M46 40.0854C49.4347 40.0854 52.219 37.2977 52.219 33.8588C52.219 30.4199 49.4347 27.6321 46 27.6321C42.5653 27.6321 39.781 30.4199 39.781 33.8588C39.781 37.2977 42.5653 40.0854 46 40.0854Z" fill="white"/>
</svg>
