<svg width="92" height="92" viewBox="0 0 92 92" fill="none" xmlns="http://www.w3.org/2000/svg">
<path d="M65.3343 78.069H74.3705C75.3199 78.065 76.2293 77.6861 76.9006 77.0147C77.572 76.3434 77.9509 75.4339 77.9548 74.4845V19.0608C77.9562 18.5901 77.8636 18.1239 77.6826 17.6895C77.5016 17.255 77.2357 16.861 76.9006 16.5306L65.5301 5.05427C65.1997 4.71913 64.8057 4.45328 64.3713 4.27225C63.9368 4.09123 63.4706 3.99868 63 4.00001H29.2349C28.2855 4.00398 27.3761 4.3829 26.7048 5.05426C26.0335 5.72562 25.6546 6.63504 25.6506 7.58448V12.9461" fill="#4968BD"/>
<path d="M50.1536 12.9461H17.0211C15.9532 12.9501 14.9305 13.3771 14.1768 14.1336C13.4232 14.8902 13 15.9145 13 16.9824V82.9637C13 83.4951 13.1049 84.0212 13.3087 84.5118C13.5124 85.0025 13.8111 85.4482 14.1875 85.8232C14.5639 86.1982 15.0106 86.4952 15.502 86.6971C15.9934 86.8991 16.5199 87.002 17.0512 87H61.2982C62.3686 87 63.3953 86.5748 64.1522 85.8178C64.9091 85.0609 65.3343 84.0342 65.3343 82.9637V28.0973C65.3334 27.0262 64.9115 25.9985 64.1596 25.2357L53.0151 14.0908C52.2475 13.3499 51.2204 12.939 50.1536 12.9461Z" fill="#D8D8D8"/>
<path d="M65.3343 26.5911H54.0843C53.4852 26.5911 52.9106 26.3531 52.487 25.9294C52.0633 25.5058 51.8253 24.9312 51.8253 24.332V12.946" fill="#969696"/>
<path d="M78 17.5547H66.75C66.1509 17.5547 65.5763 17.3167 65.1526 16.893C64.729 16.4694 64.491 15.8947 64.491 15.2956V4" fill="#64CCC4"/>
<path d="M30.9819 19.7537H20.3193C19.5374 19.7537 18.9036 20.3875 18.9036 21.1694C18.9036 21.9513 19.5374 22.5851 20.3193 22.5851H30.9819C31.7638 22.5851 32.3976 21.9513 32.3976 21.1694C32.3976 20.3875 31.7638 19.7537 30.9819 19.7537Z" fill="#969696"/>
<path d="M30.9819 26.561H20.3193C19.5374 26.561 18.9036 27.1949 18.9036 27.9768C18.9036 28.7586 19.5374 29.3925 20.3193 29.3925H30.9819C31.7638 29.3925 32.3976 28.7586 32.3976 27.9768C32.3976 27.1949 31.7638 26.561 30.9819 26.561Z" fill="#969696"/>
<path d="M58.6325 38.2031H19.7018C18.92 38.2031 18.2861 38.837 18.2861 39.6188C18.2861 40.4007 18.92 41.0346 19.7018 41.0346H58.6325C59.4144 41.0346 60.0482 40.4007 60.0482 39.6188C60.0482 38.837 59.4144 38.2031 58.6325 38.2031Z" fill="#969696"/>
<path d="M58.6325 44.8901H19.7018C18.92 44.8901 18.2861 45.524 18.2861 46.3059C18.2861 47.0877 18.92 47.7216 19.7018 47.7216H58.6325C59.4144 47.7216 60.0482 47.0877 60.0482 46.3059C60.0482 45.524 59.4144 44.8901 58.6325 44.8901Z" fill="#969696"/>
<path d="M58.6325 51.5771H19.7018C18.92 51.5771 18.2861 52.211 18.2861 52.9929C18.2861 53.7747 18.92 54.4086 19.7018 54.4086H58.6325C59.4144 54.4086 60.0482 53.7747 60.0482 52.9929C60.0482 52.211 59.4144 51.5771 58.6325 51.5771Z" fill="#969696"/>
</svg>
