<svg width="48" height="48" viewBox="0 0 48 48" fill="none" xmlns="http://www.w3.org/2000/svg">
<path d="M28 14C30.7614 14 33 11.7614 33 9C33 6.23858 30.7614 4 28 4C25.2386 4 23 6.23858 23 9C23 11.7614 25.2386 14 28 14Z" fill="#FF9800"/>
<path d="M29 27.3L19.8 23.2C18.8 22.7 18.3 24.2 17.8 25.2C17.3 26.2 13.7 32.4 14 33.5C14.3 34.4 15.1 34.9 15.9 34.9C16.1 34.9 16.3 34.9 16.5 34.8L28.8 31C29.6 30.8 30.2 30 30.2 29.2C30.2 28.4 29.7 27.6 29 27.3Z" fill="#00796B"/>
<path d="M26.8 15.2L24.6 14.2C23.3 13.6 21.7 14.2 21.1 15.5L9.2 41.1C8.7 42.1 9.2 43.3 10.2 43.8C10.5 43.9 10.8 44 11.1 44C11.9 44 12.6 43.6 12.9 42.9C12.9 42.9 22.5 29.6 23.3 28C24.1 26.4 28.2 18.7 28.2 18.7C28.7 17.4 28.2 15.8 26.8 15.2Z" fill="#009688"/>
<path d="M40.5 15.7C39.8 14.9 38.5 14.7 37.7 15.4L32.7 19.6L26.3 16.1C25.2 15.5 23.7 15.7 23 17C22.2 18.3 22.6 19.9 23.8 20.4L32.1 23.8C32.4 23.9 32.7 24 33 24C33.5 24 33.9 23.8 34.3 23.5L40.3 18.5C41.1 17.8 41.2 16.6 40.5 15.7Z" fill="#FF9800"/>
<path d="M11.7 23.1L15.1 18L19.7 18.6L21.2 15.5C21.6 14.6 22.4 14.1 23.3 14H14.1C13.4 14 12.8 14.3 12.4 14.9L8.4 20.9C7.8 21.8 8 23.1 9 23.7C9.2 23.9 9.6 24 10 24C10.6 24 11.3 23.7 11.7 23.1Z" fill="#FF9800"/>
</svg>
