<svg width="48" height="48" viewBox="0 0 48 48" fill="none" xmlns="http://www.w3.org/2000/svg">
<path d="M33 42H5V4H24L33 13V42Z" fill="#90CAF9"/>
<path d="M31.5 14H23V5.5L31.5 14Z" fill="#E1F5FE"/>
<path d="M34.505 37.58L36.485 35.6L44.968 44.085L42.988 46.065L34.505 37.58Z" fill="#616161"/>
<path d="M28 40C34.0751 40 39 35.0751 39 29C39 22.9249 34.0751 18 28 18C21.9249 18 17 22.9249 17 29C17 35.0751 21.9249 40 28 40Z" fill="#616161"/>
<path d="M28 38C32.9706 38 37 33.9706 37 29C37 24.0294 32.9706 20 28 20C23.0294 20 19 24.0294 19 29C19 33.9706 23.0294 38 28 38Z" fill="#90CAF9"/>
<path d="M36.849 39.88L38.829 37.9L44.979 44.051L42.999 46.031L36.849 39.88Z" fill="#37474F"/>
<path d="M30 31H20.3C20.7 32.6 21.6 34 22.8 35H30V31Z" fill="#1976D2"/>
<path d="M20.3 27H30V23H22.7C21.5 24 20.7 25.4 20.3 27Z" fill="#1976D2"/>
<path d="M20.1 20H11V22H18.3C18.8 21.3 19.4 20.6 20.1 20Z" fill="#1976D2"/>
<path d="M17.1 24H11V26H16.4C16.6 25.3 16.8 24.6 17.1 24Z" fill="#1976D2"/>
<path d="M16 29C16 28.7 16 28.3 16.1 28H11V30H16.1C16 29.7 16 29.3 16 29Z" fill="#1976D2"/>
<path d="M16.4 32H11V34H17.1C16.8 33.4 16.6 32.7 16.4 32Z" fill="#1976D2"/>
</svg>
