<svg width="48" height="48" viewBox="0 0 48 48" fill="none" xmlns="http://www.w3.org/2000/svg">
<path d="M12 26C14.7614 26 17 23.7614 17 21C17 18.2386 14.7614 16 12 16C9.23858 16 7 18.2386 7 21C7 23.7614 9.23858 26 12 26Z" fill="#FFA726"/>
<path d="M2 34.7C2 34.7 4.8 28.4 12 28.4C19.2 28.4 22 34.7 22 34.7V38H2V34.7Z" fill="#455A64"/>
<path d="M46 34.7C46 34.7 43.2 28.4 36 28.4C28.8 28.4 26 34.7 26 34.7V38H46V34.7Z" fill="#455A64"/>
<path d="M24 23C27.3137 23 30 20.3137 30 17C30 13.6863 27.3137 11 24 11C20.6863 11 18 13.6863 18 17C18 20.3137 20.6863 23 24 23Z" fill="#FFB74D"/>
<path d="M36 34.1C36 34.1 32.7 26.6 24 26.6C15.3 26.6 12 34.1 12 34.1V38H36V34.1Z" fill="#607D8B"/>
<path d="M36 26C38.7614 26 41 23.7614 41 21C41 18.2386 38.7614 16 36 16C33.2386 16 31 18.2386 31 21C31 23.7614 33.2386 26 36 26Z" fill="#FFA726"/>
<path d="M12 26C14.7614 26 17 23.7614 17 21C17 18.2386 14.7614 16 12 16C9.23858 16 7 18.2386 7 21C7 23.7614 9.23858 26 12 26Z" fill="#FFA726"/>
<path d="M36 26C38.7614 26 41 23.7614 41 21C41 18.2386 38.7614 16 36 16C33.2386 16 31 18.2386 31 21C31 23.7614 33.2386 26 36 26Z" fill="#FFA726"/>
</svg>
