<svg width="92" height="92" viewBox="0 0 92 92" fill="none" xmlns="http://www.w3.org/2000/svg">
<path d="M71.5336 30.8577V23.0605C71.5336 22.6914 71.387 22.3375 71.1261 22.0765C70.8651 21.8155 70.5112 21.6689 70.1421 21.6689H69.4939H24.0557V20.289C24.0557 20.2646 24.0615 20.2414 24.0615 20.2183V16.4472C24.0615 15.6482 23.5164 15 22.8439 15H11.2176C10.545 15 10 15.6482 10 16.4472V21.6654L17.4853 75.8715H20.7902L73.331 38.9587L71.5336 30.8577Z" fill="#F36B27"/>
<path d="M76.6765 25.5525H21.9776C19.4383 25.5525 17.3798 27.611 17.3798 30.1504V74.7606C17.3798 77.2999 19.4383 79.3585 21.9776 79.3585H76.6765C79.2158 79.3585 81.2744 77.2999 81.2744 74.7606V30.1504C81.2744 27.611 79.2158 25.5525 76.6765 25.5525Z" fill="#FDB63F"/>
<path fill-rule="evenodd" clip-rule="evenodd" d="M47.4137 66.0554V40.0383H51.2404V66.0554H47.4137Z" fill="white"/>
<path fill-rule="evenodd" clip-rule="evenodd" d="M62.3356 54.9603H36.3185V51.1335H62.3356V54.9603Z" fill="white"/>
</svg>
