<svg width="48" height="48" viewBox="0 0 48 48" fill="none" xmlns="http://www.w3.org/2000/svg">
<path d="M40 40C33.1 40 24 44 24 44V22C24 22 33 18 42 18L40 40Z" fill="#5C6BC0"/>
<path d="M8 40C14.9 40 24 44 24 44V22C24 22 15 18 6 18L8 40Z" fill="#7986CB"/>
<path d="M24 20C28.4183 20 32 16.4183 32 12C32 7.58172 28.4183 4 24 4C19.5817 4 16 7.58172 16 12C16 16.4183 19.5817 20 24 20Z" fill="#FFB74D"/>
<path d="M41 32H42C42.6 32 43 31.6 43 31V27C43 26.4 42.6 26 42 26H41C39.3 26 38 27.3 38 29C38 30.7 39.3 32 41 32Z" fill="#FFB74D"/>
<path d="M7 26H6C5.4 26 5 26.4 5 27V31C5 31.6 5.4 32 6 32H7C8.7 32 10 30.7 10 29C10 27.3 8.7 26 7 26Z" fill="#FFB74D"/>
</svg>
