<?xml version="1.0" encoding="UTF-8" standalone="no"?>
<!DOCTYPE svg PUBLIC "-//W3C//DTD SVG 1.1//EN" "http://www.w3.org/Graphics/SVG/1.1/DTD/svg11.dtd">
<svg width="100%" height="100%" viewBox="0 0 32 32" version="1.1" xmlns="http://www.w3.org/2000/svg" xmlns:xlink="http://www.w3.org/1999/xlink" xml:space="preserve" xmlns:serif="http://www.serif.com/" style="fill-rule:evenodd;clip-rule:evenodd;stroke-linejoin:round;stroke-miterlimit:2;">
    <g transform="matrix(1.17245,0,0,1.17245,-2.75927,-2.75927)">
        <path d="M11.469,5C7.918,5 5,7.914 5,11.469L5,20.531C5,24.082 7.914,27 11.469,27L20.531,27C24.082,27 27,24.086 27,20.531L27,11.469C27,7.918 24.086,5 20.531,5L11.469,5ZM11.469,7L20.531,7C23.004,7 25,8.996 25,11.469L25,20.531C25,23.004 23.004,25 20.531,25L11.469,25C8.996,25 7,23.004 7,20.531L7,11.469C7,8.996 8.996,7 11.469,7ZM21.906,9.188C21.402,9.188 21,9.59 21,10.094C21,10.598 21.402,11 21.906,11C22.41,11 22.813,10.598 22.813,10.094C22.813,9.59 22.41,9.188 21.906,9.188ZM16,10C12.699,10 10,12.699 10,16C10,19.301 12.699,22 16,22C19.301,22 22,19.301 22,16C22,12.699 19.301,10 16,10ZM16,12C18.223,12 20,13.777 20,16C20,18.223 18.223,20 16,20C13.777,20 12,18.223 12,16C12,13.777 13.777,12 16,12Z" style="fill:white;fill-rule:nonzero;"/>
    </g>
</svg>
