<?xml version="1.0" encoding="UTF-8" standalone="no"?>
<!DOCTYPE svg PUBLIC "-//W3C//DTD SVG 1.1//EN" "http://www.w3.org/Graphics/SVG/1.1/DTD/svg11.dtd">
<svg width="100%" height="100%" viewBox="0 0 24 24" version="1.1" xmlns="http://www.w3.org/2000/svg" xmlns:xlink="http://www.w3.org/1999/xlink" xml:space="preserve" xmlns:serif="http://www.serif.com/" style="fill-rule:evenodd;clip-rule:evenodd;stroke-linejoin:round;stroke-miterlimit:2;">
    <path d="M4.06,13C4.433,15.963 6.436,18.481 9.24,19.51C8.445,17.431 8.032,15.226 8.02,13L4.06,13ZM4.06,11L8.02,11C8.032,8.774 8.445,6.569 9.24,4.49C6.436,5.519 4.433,8.037 4.06,11ZM19.94,11C19.567,8.037 17.564,5.519 14.76,4.49C15.555,6.569 15.968,8.774 15.98,11L19.94,11ZM19.94,13L15.98,13C15.968,15.226 15.555,17.431 14.76,19.51C17.564,18.481 19.567,15.963 19.94,13ZM10.02,13C10.18,16.95 11.25,20 12,20C12.75,20 13.82,16.95 13.98,13L10.02,13ZM10.02,11L13.98,11C13.82,7.05 12.75,4 12,4C11.25,4 10.18,7.05 10.02,11ZM12,22C6.514,22 2,17.486 2,12C2,6.514 6.514,2 12,2C17.486,2 22,6.514 22,12C22,17.486 17.486,22 12,22Z" style="fill:white;fill-rule:nonzero;"/>
</svg>
