<?xml version="1.0" encoding="UTF-8" standalone="no"?>
<!DOCTYPE svg PUBLIC "-//W3C//DTD SVG 1.1//EN" "http://www.w3.org/Graphics/SVG/1.1/DTD/svg11.dtd">
<svg width="100%" height="100%" viewBox="0 0 24 24" version="1.1" xmlns="http://www.w3.org/2000/svg" xmlns:xlink="http://www.w3.org/1999/xlink" xml:space="preserve" xmlns:serif="http://www.serif.com/" style="fill-rule:evenodd;clip-rule:evenodd;stroke-linejoin:round;stroke-miterlimit:2;">
    <path d="M13.04,14.69L14.11,12.55C14.331,12.113 14.843,11.899 15.31,12.05L21.31,14.05C21.72,14.184 22,14.569 22,15L22,20C22,21.097 21.097,22 20,22L18,22C9.223,22 2,14.777 2,6L2,4C2,2.9 2.9,2 4,2L9,2C9.429,1.999 9.813,2.274 9.95,2.68L11.95,8.68C12.107,9.149 11.892,9.668 11.45,9.89L9.3,10.96C10.189,12.513 11.477,13.801 13.03,14.69L13.04,14.69ZM8.28,4L4,4L4,6C4,13.68 10.32,20 18,20L20,20L20,15.72L15.5,14.22L14.38,16.48C14.14,16.953 13.564,17.156 13.08,16.94C10.41,15.736 8.268,13.598 7.06,10.93C6.844,10.446 7.047,9.87 7.52,9.63L9.78,8.49L8.28,4Z" style="fill:white;fill-rule:nonzero;stroke:white;stroke-width:1px;"/>
</svg>
