<?xml version="1.0" encoding="UTF-8" standalone="no"?>
<!DOCTYPE svg PUBLIC "-//W3C//DTD SVG 1.1//EN" "http://www.w3.org/Graphics/SVG/1.1/DTD/svg11.dtd">
<svg width="100%" height="100%" viewBox="0 0 24 24" version="1.1" xmlns="http://www.w3.org/2000/svg" xmlns:xlink="http://www.w3.org/1999/xlink" xml:space="preserve" xmlns:serif="http://www.serif.com/" style="fill-rule:evenodd;clip-rule:evenodd;stroke-linejoin:round;stroke-miterlimit:2;">
    <path d="M4,4L20,4C21.097,4 22,4.903 22,6L22,18C22,19.097 21.097,20 20,20L4,20C2.903,20 2,19.097 2,18L2,6C2,4.9 2.9,4 4,4ZM20,7.38L20,6L4,6L4,7.38L12,11.38L20,7.38ZM20,9.62L12.45,13.39C12.167,13.533 11.833,13.533 11.55,13.39L4,9.62L4,18L20,18L20,9.62Z" style="fill:white;fill-rule:nonzero;"/>
</svg>
