<svg width="180" height="36" viewBox="0 0 180 36" fill="none" xmlns="http://www.w3.org/2000/svg">
<path d="M59.144 10.884C60.8195 10.884 62.1506 11.3775 63.1376 12.3645C64.1246 13.3515 64.6182 14.832 64.6182 16.806V24.4698H60.7365V17.4032C60.7365 16.3415 60.5167 15.5494 60.0771 15.0269C59.6375 14.5044 59.0113 14.2432 58.1985 14.2432C57.2861 14.2432 56.5645 14.5376 56.0336 15.1265C55.5028 15.7153 55.2375 16.5904 55.2375 17.7516V24.4698H51.3558V17.4032C51.3558 15.2965 50.5098 14.2432 48.8177 14.2432C47.922 14.2432 47.2087 14.5376 46.6778 15.1265C46.147 15.7153 45.8817 16.5904 45.8817 17.7516V24.4698H42V11.083H44.7461C45.277 11.083 45.7075 11.5135 45.7075 12.0444C45.7075 12.3573 45.7075 12.6258 45.7075 12.6258C46.2051 12.0617 46.8147 11.6305 47.5363 11.3319C48.2578 11.0333 49.05 10.884 49.9126 10.884C50.8581 10.884 51.7124 11.0706 52.4755 11.4438C53.2385 11.817 53.8523 12.3603 54.3168 13.0737C54.8642 12.3769 55.5568 11.8378 56.3945 11.4563C57.2322 11.0747 58.1487 10.884 59.144 10.884V10.884Z" fill="#1D191A"/>
<path d="M79.9806 11.083C80.5116 11.083 80.9421 11.5135 80.9421 12.0444C80.9421 15.1126 80.9421 24.4698 80.9421 24.4698H77.2345V22.9272C76.2724 24.0883 74.879 24.6689 73.0543 24.6689C71.7936 24.6689 70.6532 24.387 69.6329 23.8229C68.6127 23.2589 67.8124 22.4544 67.2318 21.4093C66.6512 20.3642 66.3609 19.1533 66.3609 17.7764C66.3609 16.3996 66.6512 15.1886 67.2318 14.1436C67.8124 13.0986 68.6127 12.294 69.6329 11.73C70.6532 11.166 71.7936 10.884 73.0543 10.884C74.7629 10.884 76.0982 11.4232 77.0604 12.5013V11.083H79.9806V11.083ZM73.7261 21.484C74.7048 21.484 75.5177 21.148 76.1646 20.4762C76.8116 19.8044 77.1351 18.9044 77.1351 17.7764C77.1351 16.6484 76.8116 15.7485 76.1646 15.0767C75.5177 14.4048 74.7048 14.069 73.7261 14.069C72.7308 14.069 71.9097 14.4048 71.2628 15.0767C70.6158 15.7485 70.2923 16.6484 70.2923 17.7764C70.2923 18.9044 70.6158 19.8044 71.2628 20.4762C71.9097 21.148 72.7308 21.484 73.7261 21.484Z" fill="#1D191A"/>
<path d="M87.4829 12.8497C87.9474 12.2027 88.5735 11.7134 89.3615 11.3816C90.1494 11.0499 91.0576 10.884 92.0861 10.884V14.4671C91.6548 14.4339 91.3645 14.4173 91.2152 14.4173C90.1038 14.4173 89.2329 14.7283 88.6025 15.3504C87.9722 15.9725 87.657 16.9056 87.657 18.1496V24.4698H83.7753V11.083H86.5214C87.0524 11.083 87.4829 11.5135 87.4829 12.0444C87.4829 12.4586 87.4829 12.8497 87.4829 12.8497V12.8497Z" fill="#1D191A"/>
<path d="M94.0487 11.0557H94.0491C96.1927 11.0557 97.9304 12.7934 97.9304 14.937C97.9304 18.8899 97.9304 24.4424 97.9304 24.4424H94.0487V11.0557V11.0557Z" fill="#1D191A"/>
<path d="M108.561 23.8024C108.179 24.0844 107.711 24.2959 107.155 24.437C106.599 24.5779 106.023 24.6484 105.426 24.6484C103.817 24.6484 102.581 24.242 101.718 23.4292C100.856 22.6163 100.424 21.422 100.424 19.8461V8.10156H101.047C102.847 8.10156 104.306 9.56078 104.306 11.3608C104.306 11.361 104.306 11.3611 104.306 11.3611H107.615V14.3471H104.306V19.7963C104.306 20.3603 104.447 20.7957 104.729 21.1026C105.011 21.4095 105.417 21.563 105.948 21.563C106.546 21.563 107.076 21.397 107.541 21.0654L108.561 23.8024Z" fill="#1D191A"/>
<path d="M113.711 12.8497C114.176 12.2027 114.802 11.7134 115.59 11.3816C116.378 11.0499 117.286 10.884 118.315 10.884V14.4671C117.883 14.4339 117.593 14.4173 117.444 14.4173C116.332 14.4173 115.462 14.7283 114.831 15.3504C114.201 15.9725 113.886 16.9056 113.886 18.1496V24.4698H110.004V11.083H112.75C113.281 11.083 113.711 11.5135 113.711 12.0444C113.711 12.4586 113.711 12.8497 113.711 12.8497V12.8497Z" fill="#1D191A"/>
<path d="M132.505 11.0557C133.036 11.0557 133.467 11.4861 133.467 12.0171C133.467 14.7222 133.467 22.2031 133.467 22.2031C133.467 24.6582 132.845 26.4829 131.601 27.6772C130.357 28.8715 128.548 29.4687 126.176 29.4687C124.916 29.4687 123.725 29.3112 122.606 28.996C121.486 28.6808 120.545 28.2246 119.781 27.6275L121.324 24.8406C121.888 25.305 122.577 25.67 123.389 25.9354C124.202 26.2008 125.023 26.3336 125.853 26.3336C127.147 26.3336 128.092 26.035 128.689 25.4377C129.287 24.8406 129.585 23.9282 129.585 22.7007V22.2528C129.088 22.7505 128.499 23.132 127.819 23.3974C127.138 23.6629 126.409 23.7955 125.629 23.7955C123.87 23.7955 122.477 23.2938 121.449 22.2902C120.42 21.2866 119.906 19.7812 119.906 17.774V11.0557H122.826C123.357 11.0557 123.788 11.4861 123.788 12.0171C123.788 13.746 123.788 17.2016 123.788 17.2016C123.788 19.3747 124.692 20.4613 126.5 20.4613C127.429 20.4613 128.175 20.1586 128.739 19.5531C129.303 18.9476 129.585 18.0476 129.585 16.8533V11.0557H132.505V11.0557Z" fill="#1D191A"/>
<path d="M142.699 24.6689C141.289 24.6689 140.024 24.3745 138.904 23.7855C137.784 23.1967 136.909 22.3797 136.279 21.3347C135.649 20.2895 135.333 19.1035 135.333 17.7764C135.333 16.4494 135.649 15.2633 136.279 14.2183C136.909 13.1732 137.784 12.3562 138.904 11.7673C140.024 11.1785 141.289 10.884 142.699 10.884C144.109 10.884 145.369 11.1785 146.481 11.7673C147.592 12.3562 148.463 13.1732 149.093 14.2183C149.724 15.2633 150.039 16.4494 150.039 17.7764C150.039 19.1035 149.724 20.2895 149.093 21.3347C148.463 22.3797 147.592 23.1967 146.481 23.7855C145.369 24.3745 144.109 24.6689 142.699 24.6689ZM142.699 21.484C143.694 21.484 144.511 21.148 145.15 20.4762C145.788 19.8044 146.108 18.9044 146.108 17.7764C146.108 16.6484 145.788 15.7485 145.15 15.0767C144.511 14.4048 143.694 14.069 142.699 14.069C141.703 14.069 140.882 14.4048 140.235 15.0767C139.588 15.7485 139.265 16.6484 139.265 17.7764C139.265 18.9044 139.588 19.8044 140.235 20.4762C140.882 21.148 141.703 21.484 142.699 21.484Z" fill="#1D191A"/>
<path d="M164.406 11.0557C164.937 11.0557 165.367 11.4861 165.367 12.0171C165.367 15.0852 165.367 24.4424 165.367 24.4424H161.684V22.8499C161.17 23.4306 160.556 23.8743 159.843 24.1812C159.13 24.4881 158.358 24.6415 157.529 24.6415C155.771 24.6415 154.377 24.1355 153.349 23.1237C152.32 22.1118 151.806 20.6106 151.806 18.62V11.0557H154.726C155.257 11.0557 155.688 11.4861 155.688 12.0171C155.688 13.9337 155.688 18.0476 155.688 18.0476C155.688 20.2041 156.592 21.2824 158.4 21.2824C159.329 21.2824 160.075 20.9797 160.639 20.3742C161.203 19.7687 161.485 18.8688 161.485 17.6744V11.0557H164.406V11.0557Z" fill="#1D191A"/>
<path d="M176.292 23.8024C175.911 24.0844 175.442 24.2959 174.886 24.437C174.33 24.5779 173.754 24.6484 173.157 24.6484C171.548 24.6484 170.312 24.242 169.449 23.4292C168.587 22.6163 168.155 21.422 168.155 19.8461V8.10156H168.778C170.578 8.10156 172.037 9.56078 172.037 11.3608C172.037 11.361 172.037 11.3611 172.037 11.3611H174.385C174.916 11.3611 175.346 11.7916 175.346 12.3225C175.346 13.1954 175.346 14.3471 175.346 14.3471H172.037V19.7963C172.037 20.3603 172.178 20.7957 172.46 21.1026C172.742 21.4095 173.149 21.563 173.679 21.563C174.277 21.563 174.807 21.397 175.272 21.0654L176.292 23.8024V23.8024Z" fill="#1D191A"/>
<path d="M95.9896 9.81049C97.0615 9.81049 97.9305 8.94152 97.9305 7.8696C97.9305 6.79768 97.0615 5.92871 95.9896 5.92871C94.9177 5.92871 94.0487 6.79768 94.0487 7.8696C94.0487 8.94152 94.9177 9.81049 95.9896 9.81049Z" fill="#D81A34"/>
<path fill-rule="evenodd" clip-rule="evenodd" d="M12.2734 7.64117C16.0584 4.90288 20.6236 3.17764 25.5696 2.86493C25.9898 2.84273 26.4008 2.99409 26.7061 3.28366C27.0116 3.57323 27.1846 3.97549 27.1848 4.39626C27.1937 7.28849 27.1959 13.1324 27.1959 13.1324C24.9605 13.1335 22.8375 13.6182 20.9253 14.4881C18.6576 11.5548 15.69 9.18877 12.2734 7.64117V7.64117Z" fill="#2E2E2E"/>
<path fill-rule="evenodd" clip-rule="evenodd" d="M12.0154 14.4432C10.1341 13.6066 8.05198 13.1413 5.86194 13.1402C5.86194 13.1402 5.86397 7.30076 5.86508 4.4076C5.86527 3.98351 6.03957 3.57828 6.34709 3.28667C6.6548 2.99488 7.06872 2.84241 7.49207 2.86499C12.41 3.18454 16.9516 4.89312 20.7237 7.60532C17.2871 9.14219 14.2998 11.5062 12.0154 14.4432V14.4432Z" fill="#2E2E2E"/>
<path fill-rule="evenodd" clip-rule="evenodd" d="M16.4415 29.1017C16.453 28.8737 16.4589 28.6437 16.4589 28.4122C16.4589 21.9633 11.9495 16.5595 5.91391 15.1843C4.15407 14.7907 2.90307 13.2283 2.90381 11.425C2.90011 9.98325 2.90066 8.37513 2.90122 7.21943C2.90122 6.79422 3.077 6.38788 3.38674 6.09664C3.69649 5.80522 4.11281 5.6548 4.53727 5.68089C16.3434 6.53185 25.6744 16.3909 25.6744 28.4122C25.6744 28.4124 25.6744 28.4124 25.6744 28.4124C25.6744 28.793 25.3658 29.1017 24.9851 29.1017C22.8545 29.1017 16.4415 29.1017 16.4415 29.1017V29.1017Z" fill="#D81A34"/>
<path fill-rule="evenodd" clip-rule="evenodd" d="M16.4593 29.1017C16.4478 28.8737 16.4421 28.6437 16.4421 28.4122C16.4421 21.9633 20.9515 16.5595 26.9869 15.1843C28.7467 14.7907 29.9977 13.2283 29.9971 11.425C30.0006 9.98325 30.0001 8.37513 29.9997 7.21943C29.9995 6.79422 29.8239 6.38788 29.514 6.09664C29.2043 5.80522 28.788 5.6548 28.3635 5.68089C16.5575 6.53185 7.22656 16.3909 7.22656 28.4122C7.22656 28.4124 7.22656 28.4124 7.22656 28.4124C7.22656 28.793 7.53501 29.1017 7.91581 29.1017C10.0463 29.1017 16.4593 29.1017 16.4593 29.1017Z" fill="#FF2E43"/>
</svg>
