<svg width="92" height="92" viewBox="0 0 92 92" fill="none" xmlns="http://www.w3.org/2000/svg">
<path fill-rule="evenodd" clip-rule="evenodd" d="M71.1294 19.0886C72.958 17.5436 75.6929 17.7735 77.2379 19.6021C82.9845 26.4035 86.3551 34.8942 86.8379 43.7851C87.3207 52.6761 84.8894 61.4818 79.913 68.8655C78.5751 70.8506 75.8812 71.3753 73.8961 70.0374C71.9109 68.6995 71.3862 66.0056 72.7242 64.0205C76.6459 58.2015 78.5619 51.262 78.1815 44.2552C77.801 37.2484 75.1447 30.5571 70.6159 25.1971C69.0709 23.3685 69.3008 20.6336 71.1294 19.0886Z" fill="black"/>
<path fill-rule="evenodd" clip-rule="evenodd" d="M46 13.8731C28.2562 13.8731 13.8731 28.2562 13.8731 46C13.8731 63.7438 28.2562 78.1269 46 78.1269C63.7438 78.1269 78.1269 63.7438 78.1269 46C78.1269 43.5498 80.1132 41.5634 82.5634 41.5634C85.0137 41.5634 87 43.5498 87 46C87 68.6443 68.6443 87 46 87C23.3557 87 5 68.6443 5 46C5 23.3557 23.3557 5 46 5C48.4502 5 50.4366 6.98632 50.4366 9.43657C50.4366 11.8868 48.4502 13.8731 46 13.8731Z" fill="#419CDE"/>
<path fill-rule="evenodd" clip-rule="evenodd" d="M82.5635 41.5635C85.0137 41.5635 87 43.5498 87 46C87 68.6434 68.6457 86.9986 46.0027 87C46.0018 87 46.0009 87 46 87V82.5634L46.0053 87C46.0044 87 46.0035 87 46.0027 87C40.3345 87.0064 34.7268 85.8346 29.5354 83.5589C24.3432 81.283 19.6808 77.9525 15.8442 73.779C14.1859 71.9751 14.3039 69.1685 16.1078 67.5103C17.9116 65.852 20.7182 65.9701 22.3765 67.7739C25.3809 71.0421 29.0319 73.6501 33.0977 75.4323C37.1635 77.2145 41.5555 78.1321 45.9948 78.1269L45.9974 78.1269H46C63.7438 78.1269 78.1269 63.7438 78.1269 46C78.1269 43.5498 80.1132 41.5635 82.5635 41.5635Z" fill="#FDA539"/>
<path d="M46 65.8882C56.9839 65.8882 65.8881 56.984 65.8881 46.0001C65.8881 35.0162 56.9839 26.1121 46 26.1121C35.0161 26.1121 26.1119 35.0162 26.1119 46.0001C26.1119 56.984 35.0161 65.8882 46 65.8882Z" fill="#09BEAD"/>
</svg>
